# xmcd
#
# Track frame offsets: 
#        150
#        10254
#        44722
#        66540
#        75921
#        94082
#        116526
#        139357
#        168409
#
# Disc length: 2608 seconds
#
# Revision: 1
# Processed by: cddbd v1.5.2PL0 Copyright (c) Steve Scherf et al.
# Submitted via: ExactAudioCopy v1.3
#
DISCID=780a2e09
DTITLE=Gaye, Marvin - Live In Montreux
DYEAR=1980
DGENRE=Soul
TTITLE0=Time (To Get It Together)
TTITLE1=Got To Give It Up
TTITLE2=A Funky Space Reincarnation
TTITLE3=After The Dance
TTITLE4=Come Get To This
TTITLE5=Let's Get It On
TTITLE6=After The Dance
TTITLE7=Duet Medley
TTITLE8=How Sweet It Is
EXTD=
EXTT0=
EXTT1=
EXTT2=
EXTT3=
EXTT4=
EXTT5=
EXTT6=
EXTT7=
EXTT8=
PLAYORDER=
